<svg xmlns="http://www.w3.org/2000/svg" version="1.1" xmlns:xlink="http://www.w3.org/1999/xlink" width="1000" height="1000"><style>
    #light-icon {
      display: inline;
    }
    #dark-icon {
      display: none;
    }

    @media (prefers-color-scheme: dark) {
      #light-icon {
        display: none;
      }
      #dark-icon {
        display: inline;
      }
    }
  </style><g id="light-icon"><svg xmlns="http://www.w3.org/2000/svg" version="1.1" xmlns:xlink="http://www.w3.org/1999/xlink" width="1000" height="1000"><g clip-path="url(#SvgjsClipPath1099)"><rect width="1000" height="1000" fill="#ffffff"></rect><g transform="matrix(1.25,0,0,1.25,0,0)"><svg xmlns="http://www.w3.org/2000/svg" version="1.1" xmlns:xlink="http://www.w3.org/1999/xlink" height="800px" width="800px" id="Layer_1" viewBox="0 0 64 64" xml:space="preserve"><style type="text/css">
	.st0{fill:#4F5D73;}
	.st1{opacity:0.2;fill:#231F20;}
	.st2{fill:#F5CF87;}
</style><circle class="st0" cx="32" cy="32" r="32"></circle><path class="st1" d="M46.9,17.5C46.7,17.2,46.4,17,46,17H29c-0.4,0-0.7,0.2-0.9,0.6l-8,16c-0.2,0.3-0.1,0.7,0,1
	c0.2,0.3,0.5,0.5,0.9,0.5h5.5l-8.4,18.6c-0.2,0.4-0.1,0.9,0.3,1.2c0.2,0.1,0.4,0.2,0.6,0.2c0.2,0,0.5-0.1,0.6-0.2l24-20
	c0.3-0.3,0.4-0.7,0.3-1.1C43.8,33.3,43.4,33,43,33h-6.1l9.9-14.4C47,18.3,47.1,17.9,46.9,17.5z"></path><path class="st2" d="M46.9,15.5C46.7,15.2,46.4,15,46,15H29c-0.4,0-0.7,0.2-0.9,0.6l-8,16c-0.2,0.3-0.1,0.7,0,1
	c0.2,0.3,0.5,0.5,0.9,0.5h5.5l-8.4,18.6c-0.2,0.4-0.1,0.9,0.3,1.2c0.2,0.1,0.4,0.2,0.6,0.2c0.2,0,0.5-0.1,0.6-0.2l24-20
	c0.3-0.3,0.4-0.7,0.3-1.1C43.8,31.3,43.4,31,43,31h-6.1l9.9-14.4C47,16.3,47.1,15.9,46.9,15.5z"></path></svg></g></g><defs><clipPath id="SvgjsClipPath1099"><rect width="1000" height="1000" x="0" y="0" rx="500" ry="500"></rect></clipPath></defs></svg></g><g id="dark-icon"><svg xmlns="http://www.w3.org/2000/svg" version="1.1" xmlns:xlink="http://www.w3.org/1999/xlink" width="1000" height="1000"><g clip-path="url(#SvgjsClipPath1100)"><rect width="1000" height="1000" fill="#000000"></rect><g transform="matrix(1.25,0,0,1.25,0,0)"><svg xmlns="http://www.w3.org/2000/svg" version="1.1" xmlns:xlink="http://www.w3.org/1999/xlink" height="800px" width="800px" id="Layer_1" viewBox="0 0 64 64" xml:space="preserve"><style type="text/css">
	.st0{fill:#4F5D73;}
	.st1{opacity:0.2;fill:#231F20;}
	.st2{fill:#F5CF87;}
</style><circle class="st0" cx="32" cy="32" r="32"></circle><path class="st1" d="M46.9,17.5C46.7,17.2,46.4,17,46,17H29c-0.4,0-0.7,0.2-0.9,0.6l-8,16c-0.2,0.3-0.1,0.7,0,1
	c0.2,0.3,0.5,0.5,0.9,0.5h5.5l-8.4,18.6c-0.2,0.4-0.1,0.9,0.3,1.2c0.2,0.1,0.4,0.2,0.6,0.2c0.2,0,0.5-0.1,0.6-0.2l24-20
	c0.3-0.3,0.4-0.7,0.3-1.1C43.8,33.3,43.4,33,43,33h-6.1l9.9-14.4C47,18.3,47.1,17.9,46.9,17.5z"></path><path class="st2" d="M46.9,15.5C46.7,15.2,46.4,15,46,15H29c-0.4,0-0.7,0.2-0.9,0.6l-8,16c-0.2,0.3-0.1,0.7,0,1
	c0.2,0.3,0.5,0.5,0.9,0.5h5.5l-8.4,18.6c-0.2,0.4-0.1,0.9,0.3,1.2c0.2,0.1,0.4,0.2,0.6,0.2c0.2,0,0.5-0.1,0.6-0.2l24-20
	c0.3-0.3,0.4-0.7,0.3-1.1C43.8,31.3,43.4,31,43,31h-6.1l9.9-14.4C47,16.3,47.1,15.9,46.9,15.5z"></path></svg></g></g><defs><clipPath id="SvgjsClipPath1100"><rect width="1000" height="1000" x="0" y="0" rx="500" ry="500"></rect></clipPath></defs></svg></g></svg>